<?xml version="1.0" standalone="no"?>
<!DOCTYPE svg PUBLIC "-//W3C//DTD SVG 20010904//EN"
 "http://www.w3.org/TR/2001/REC-SVG-20010904/DTD/svg10.dtd">
<svg version="1.0" xmlns="http://www.w3.org/2000/svg"
 width="80.000000pt" height="80.000000pt" viewBox="0 0 80.000000 80.000000"
 preserveAspectRatio="xMidYMid meet">

<g transform="translate(0.000000,80.000000) scale(0.100000,-0.100000)"
fill="#000000" stroke="none">
<path d="M166 554 c-5 -135 -11 -191 -28 -248 -12 -43 -18 -83 -15 -98 8 -31
40 -44 202 -82 61 -14 144 -36 186 -47 84 -24 132 -21 170 9 28 24 19 70 -23
118 -25 28 -49 40 -132 65 -55 17 -109 39 -120 48 -17 15 -18 28 -11 203 l7
186 -53 6 c-30 3 -81 7 -115 10 l-61 4 -7 -174z m212 140 c8 -2 11 -12 8 -21
-3 -10 -8 -87 -10 -172 -6 -162 2 -203 41 -215 126 -36 163 -50 163 -58 0 -6
6 -8 14 -5 30 12 86 -55 86 -101 0 -37 -75 -51 -155 -29 -11 3 -70 18 -131 34
-83 22 -109 33 -106 44 3 11 2 12 -6 0 -8 -11 -19 -11 -63 -2 -29 6 -59 16
-66 23 -17 14 -17 68 1 115 24 63 26 85 27 248 l1 156 91 -7 c51 -3 98 -7 105
-10z"/>
<path d="M550 199 c0 -5 5 -7 10 -4 6 3 10 8 10 11 0 2 -4 4 -10 4 -5 0 -10
-5 -10 -11z"/>
</g>
</svg>
