<?xml version="1.0" standalone="no"?>
<!DOCTYPE svg PUBLIC "-//W3C//DTD SVG 20010904//EN"
 "http://www.w3.org/TR/2001/REC-SVG-20010904/DTD/svg10.dtd">
<svg version="1.0" xmlns="http://www.w3.org/2000/svg"
 width="500pt" height="293pt" viewBox="0 0 1181.000000 500.0000 "
 preserveAspectRatio="xMidYMid meet">

<g transform="translate(0.000000,500.0000) scale(0.100000,-0.100000)"
fill="#000000" stroke="none">
<path d="M6295 4352 c-125 -42 -215 -141 -308 -340 -13 -26 -35 -66 -49 -88
-24 -37 -30 -41 -68 -41 -37 0 -45 4 -88 56 -26 31 -49 58 -52 61 -3 3 -29 42
-59 88 -55 84 -157 189 -213 218 -43 22 -132 29 -200 15 -148 -31 -232 -174
-165 -284 62 -102 271 -210 450 -232 31 -4 57 -11 57 -16 0 -5 -6 -9 -14 -9
-42 0 -436 -234 -436 -258 0 -5 6 -15 14 -21 11 -9 38 4 129 63 207 135 321
182 473 193 48 4 73 2 78 -6 10 -16 44 -14 53 4 7 12 22 13 98 5 170 -19 165
-17 425 -152 164 -86 267 -125 296 -114 35 13 6 39 -86 75 -81 32 -354 167
-385 191 -5 4 -35 13 -65 21 l-55 13 79 13 c173 27 346 92 424 159 73 62 98
151 71 248 -15 55 -87 122 -152 141 -65 19 -188 18 -252 -3z m224 -47 c119
-31 174 -142 121 -245 -35 -68 -150 -130 -325 -174 -60 -15 -328 -56 -367 -56
l-21 0 19 23 c32 35 83 122 156 266 28 54 115 146 155 162 41 17 132 37 173
38 19 0 59 -6 89 -14z m-1074 -56 c56 -30 98 -72 163 -164 83 -117 120 -165
163 -210 21 -21 37 -41 35 -42 -8 -8 -281 29 -353 48 -228 60 -359 175 -323
285 12 35 55 75 100 93 14 5 59 10 100 10 58 1 84 -4 115 -20z"/>
<path d="M2622 3306 c-142 -68 -301 -237 -383 -407 -126 -259 -77 -460 139
-566 70 -35 83 -38 162 -38 74 0 92 4 140 29 30 16 79 49 108 73 49 42 53 44
51 22 -5 -51 2 -80 22 -100 34 -34 75 -20 136 47 l52 56 34 -36 c41 -43 109
-75 158 -76 68 0 211 56 271 108 33 28 3 -41 -49 -114 -70 -97 -123 -209 -130
-274 -4 -47 -2 -59 17 -82 12 -16 30 -28 40 -28 46 0 109 132 158 335 26 105
29 112 82 169 l56 59 39 -20 c53 -27 102 -34 148 -24 36 9 37 8 37 -21 0 -44
17 -68 65 -89 48 -21 77 -16 109 20 18 20 27 21 85 16 84 -8 193 14 268 54 53
29 55 30 49 8 -17 -62 -18 -93 -2 -106 14 -12 25 -5 84 54 60 60 112 95 141
95 6 0 28 -24 51 -53 56 -75 116 -102 204 -94 39 4 85 16 114 31 69 35 182
127 182 149 0 36 -30 30 -88 -18 -107 -89 -231 -125 -306 -90 -20 10 -50 37
-66 60 -31 45 -69 75 -95 75 -24 0 -96 -39 -128 -69 l-29 -26 8 30 c4 17 11
38 16 48 6 12 5 23 -3 33 -17 21 -32 17 -63 -15 -61 -64 -250 -124 -339 -107
-36 7 -37 8 -37 51 0 54 -22 81 -74 91 -37 6 -61 -2 -136 -49 -50 -31 -123
-29 -190 6 l-53 28 -36 -35 -36 -35 -3 37 c-3 47 -24 71 -46 52 -9 -7 -16 -24
-16 -39 0 -48 -166 -145 -272 -157 -91 -11 -145 24 -176 114 -10 27 -24 57
-30 65 -10 12 -9 16 3 21 21 8 19 43 -4 49 -28 7 -118 -42 -160 -88 -29 -32
-41 -39 -54 -31 -12 8 -29 -3 -77 -47 -80 -75 -129 -99 -210 -104 -74 -6 -145
16 -222 67 -98 65 -133 204 -88 352 76 254 312 498 481 498 97 0 117 -47 41
-95 -103 -65 -203 -184 -217 -258 -6 -30 -3 -40 19 -61 30 -31 65 -33 121 -6
84 41 184 175 205 276 12 59 12 59 105 72 42 6 51 11 53 30 3 21 1 22 -87 22
-53 0 -91 4 -91 10 0 5 -19 22 -42 36 -62 39 -146 43 -216 10z m208 -198 c0
-30 -55 -118 -97 -154 -82 -69 -113 -80 -113 -41 0 53 142 207 191 207 11 0
19 -5 19 -12z m176 -605 c-77 -137 -97 -161 -109 -129 -16 42 45 139 108 171
17 8 31 15 32 15 1 0 -13 -26 -31 -57z m1089 -42 c-3 -11 -12 -21 -20 -21 -19
0 -29 38 -14 56 11 13 14 13 27 1 9 -9 11 -23 7 -36z m-75 13 c0 -38 17 -63
40 -59 26 5 26 -11 1 -25 -44 -23 -91 -6 -91 33 0 22 30 77 42 77 4 0 8 -12 8
-26z m-551 -291 c-17 -63 -61 -183 -70 -189 -16 -10 -9 44 12 102 20 53 57
124 64 124 2 0 -1 -17 -6 -37z"/>
<path d="M7855 3288 c-8 -18 -57 -150 -108 -293 -151 -417 -247 -591 -340
-609 -49 -10 -81 -7 -105 10 -35 24 -27 53 29 105 35 32 50 53 46 63 -9 23
-29 20 -76 -14 -87 -63 -104 -131 -46 -186 83 -78 203 -49 298 71 72 92 135
228 254 550 l48 130 7 -65 c23 -190 80 -630 86 -665 6 -31 13 -41 30 -43 14
-2 24 3 29 15 84 236 280 675 346 779 45 71 115 124 162 124 58 0 99 -77 59
-111 -9 -7 -43 -14 -78 -15 -79 -2 -76 -1 -76 -24 0 -27 64 -44 120 -31 107
24 138 122 63 197 -30 30 -40 34 -86 34 -41 0 -63 -6 -98 -29 -90 -58 -153
-159 -278 -448 -127 -297 -141 -326 -146 -322 -15 16 -74 557 -75 685 0 99 -7
124 -37 124 -7 0 -20 -15 -28 -32z"/>
<path d="M965 3256 c-22 -9 -57 -33 -77 -55 -33 -35 -38 -46 -38 -90 0 -56 25
-94 85 -131 35 -21 46 -40 24 -40 -22 0 -194 -92 -254 -136 -80 -58 -102 -79
-151 -144 -56 -74 -72 -107 -80 -169 -11 -82 12 -167 57 -212 41 -41 130 -79
186 -79 49 0 144 24 226 58 121 49 297 206 338 302 12 27 25 47 30 44 5 -3 9
-31 9 -62 0 -97 43 -184 109 -226 65 -42 165 -35 266 16 138 70 225 148 225
202 0 29 -52 19 -90 -17 -19 -17 -42 -36 -51 -42 -9 -5 -41 -26 -70 -46 -30
-20 -78 -44 -107 -54 -49 -16 -55 -16 -100 1 -57 21 -78 44 -92 105 -10 41 -9
53 13 105 14 33 28 70 32 84 4 14 18 41 31 60 31 48 64 176 64 253 0 76 -24
107 -81 107 -28 -1 -39 -8 -68 -45 -32 -44 -80 -181 -81 -232 0 -29 -5 -29
-42 2 -66 56 -207 11 -327 -104 -72 -70 -101 -129 -101 -210 0 -48 4 -62 31
-94 22 -26 38 -37 53 -35 30 4 31 31 2 77 -20 31 -24 48 -19 73 20 102 162
230 271 245 48 6 76 -21 74 -72 -2 -47 -24 -87 -90 -165 -119 -141 -318 -252
-453 -252 -51 0 -129 34 -129 57 0 8 -4 15 -8 15 -5 0 -17 26 -27 59 -15 50
-16 64 -5 97 53 162 337 367 551 397 74 11 84 15 87 34 3 18 -4 24 -40 33 -81
20 -173 62 -200 91 -36 38 -36 73 1 110 28 27 34 29 111 29 46 0 95 -6 114
-14 40 -17 106 -73 106 -91 0 -21 17 -27 40 -15 48 26 -3 120 -86 160 -62 30
-207 38 -269 16z m519 -252 c15 -40 -67 -319 -95 -319 -30 0 -2 165 48 278 27
59 37 68 47 41z"/>
<path d="M5827 3010 c-75 -82 -122 -222 -134 -393 l-6 -98 -21 25 c-32 39 -71
49 -111 30 -82 -38 -128 -160 -90 -234 34 -66 113 -46 190 47 27 34 53 62 56
62 4 1 12 -12 19 -29 17 -40 79 -95 125 -110 69 -23 181 0 299 61 59 31 59 31
75 11 63 -80 254 -103 418 -50 120 38 304 146 311 181 5 23 -26 33 -52 17
-106 -68 -175 -104 -256 -131 -79 -27 -111 -33 -185 -33 -100 -1 -177 21 -196
55 -11 22 -13 21 74 39 44 9 67 21 97 49 48 46 50 71 9 105 -35 30 -59 28
-125 -10 -46 -26 -104 -87 -104 -109 0 -45 -193 -129 -296 -130 -74 0 -110 17
-134 65 -32 64 -33 91 -4 145 120 222 182 403 155 454 -20 37 -72 28 -114 -19z
m59 -47 c-3 -10 -10 -36 -15 -58 -6 -22 -34 -85 -61 -140 -47 -94 -50 -97 -45
-55 9 73 42 172 74 223 30 46 57 64 47 30z m524 -409 c-24 -28 -121 -59 -104
-33 11 19 68 49 93 49 20 0 22 -2 11 -16z m-775 -64 c15 -29 15 -30 -34 -80
-54 -56 -77 -62 -87 -25 -8 31 21 111 44 125 32 18 61 11 77 -20z"/>
<path d="M4115 2770 c-3 -5 -4 -14 -1 -19 10 -15 -13 -62 -39 -83 -43 -34 -26
-69 23 -49 55 23 92 117 60 149 -15 15 -35 16 -43 2z"/>
<path d="M10590 2603 c-147 -143 -194 -167 -335 -167 l-100 -1 -6 44 c-6 49
-25 67 -76 77 -47 9 -72 0 -123 -46 -53 -48 -128 -88 -225 -121 -60 -21 -89
-24 -205 -24 -163 0 -196 11 -193 64 0 18 11 43 22 55 12 12 21 27 21 33 0 19
76 73 101 73 32 0 43 -9 60 -45 20 -42 43 -39 47 6 3 30 -2 41 -28 63 -21 17
-43 26 -66 26 -55 0 -129 -44 -171 -101 -49 -64 -105 -100 -220 -139 -110 -36
-219 -47 -321 -31 -88 14 -112 27 -112 62 0 62 128 171 181 154 11 -4 27 -23
35 -42 18 -42 47 -42 52 0 3 21 -5 36 -31 62 -62 62 -139 43 -237 -60 -149
-156 -352 -226 -444 -154 -29 23 -34 69 -14 125 9 26 9 36 -1 48 -19 23 -45 4
-59 -42 -30 -99 -4 -158 86 -200 45 -20 64 -24 113 -19 63 5 205 65 235 98 16
18 17 17 38 -14 11 -18 43 -43 70 -56 97 -48 341 -24 503 49 l67 31 18 -23
c10 -13 18 -26 18 -29 0 -4 19 -15 43 -24 110 -46 425 -19 529 45 48 30 48 30
68 10 11 -11 20 -24 20 -30 0 -15 71 -41 94 -34 12 4 35 18 53 31 29 23 38 24
97 18 72 -8 180 12 249 47 l37 19 30 -31 c16 -16 55 -42 87 -56 51 -23 67 -25
133 -21 123 8 241 59 352 151 41 34 46 47 23 66 -12 10 -25 3 -74 -35 -65 -49
-165 -100 -218 -111 -32 -6 -33 -6 -27 24 8 39 -18 84 -68 117 -47 31 -48 53
-6 94 26 25 30 35 22 48 -6 9 -15 18 -22 21 -6 2 -61 -45 -122 -105z m89 -102
c60 -52 63 -73 14 -92 -38 -14 -87 -3 -119 26 -15 14 -31 25 -36 25 -9 0 72
89 82 89 3 0 29 -21 59 -48z m-569 -22 c0 -23 -28 -25 -36 -4 -4 8 -3 22 0 31
5 13 9 14 21 4 8 -7 15 -21 15 -31z m-73 -16 c3 -10 12 -25 20 -34 18 -21 6
-49 -21 -49 -29 0 -46 18 -46 50 0 43 35 67 47 33z"/>
<path d="M3538 2663 c-40 -27 -46 -41 -27 -60 14 -14 53 3 82 34 16 19 16 20
0 35 -16 14 -21 14 -55 -9z"/>
<path d="M8163 2669 c-35 -23 -43 -53 -17 -63 22 -8 86 41 82 62 -5 24 -29 25
-65 1z"/>
<path d="M5154 1499 c-49 -14 -69 -43 -69 -104 0 -61 19 -90 71 -104 41 -11
94 1 118 28 22 24 31 88 17 123 -18 47 -80 73 -137 57z m96 -39 c27 -27 35
-65 20 -101 -15 -35 -37 -49 -80 -49 -43 0 -65 14 -80 49 -25 62 14 121 80
121 26 0 47 -7 60 -20z"/>
<path d="M5873 1499 c-100 -28 -98 -180 2 -208 93 -25 166 52 135 144 -18 55
-74 81 -137 64z m94 -41 c17 -16 23 -32 23 -65 0 -57 -25 -83 -80 -83 -54 0
-90 34 -90 85 0 75 92 114 147 63z"/>
<path d="M7454 1503 c-12 -2 -34 -17 -49 -33 -23 -24 -28 -39 -28 -75 0 -38 5
-52 31 -77 25 -26 39 -31 77 -31 38 0 52 5 77 31 26 25 31 39 31 77 0 38 -5
51 -29 75 -29 28 -71 41 -110 33z m95 -49 c12 -15 21 -41 21 -59 0 -18 -9 -44
-21 -59 -16 -21 -29 -26 -64 -26 -35 0 -48 5 -64 26 -12 15 -21 41 -21 59 0
18 9 44 21 59 16 21 29 26 64 26 35 0 48 -5 64 -26z"/>
<path d="M7823 1499 c-45 -13 -73 -53 -73 -104 0 -75 62 -121 146 -108 58 10
49 23 -16 23 -75 0 -110 27 -110 85 0 56 35 85 105 85 30 0 55 5 55 10 0 6 -8
10 -17 10 -10 0 -27 2 -38 4 -11 3 -34 0 -52 -5z"/>
<path d="M8160 1497 c-91 -31 -88 -180 5 -206 79 -22 145 26 145 106 0 36 -6
50 -29 74 -16 16 -36 29 -44 29 -9 0 -21 2 -29 4 -7 3 -29 0 -48 -7z m105 -42
c56 -55 16 -145 -65 -145 -55 0 -80 26 -80 85 0 59 25 85 80 85 30 0 47 -7 65
-25z"/>
<path d="M4020 1395 l0 -105 61 0 c54 0 64 3 90 29 24 24 29 38 29 76 0 38 -5
52 -29 76 -26 26 -36 29 -90 29 l-61 0 0 -105z m135 60 c56 -55 16 -145 -65
-145 l-40 0 0 85 0 85 40 0 c30 0 47 -7 65 -25z"/>
<path d="M4360 1395 l0 -105 75 0 c43 0 75 4 75 10 0 6 -27 10 -60 10 l-60 0
0 34 0 35 53 3 c28 2 52 8 52 13 0 6 -24 11 -52 13 l-53 3 0 35 0 34 60 0 c33
0 60 4 60 10 0 6 -32 10 -75 10 l-75 0 0 -105z"/>
<path d="M4750 1490 c0 -5 18 -10 40 -10 l40 0 0 -95 c0 -78 3 -95 15 -95 12
0 15 17 15 95 l0 95 40 0 c22 0 40 5 40 10 0 6 -38 10 -95 10 -57 0 -95 -4
-95 -10z"/>
<path d="M5460 1395 l0 -105 60 0 c51 0 64 4 92 28 27 25 31 36 31 77 0 41 -4
52 -31 77 -28 24 -41 28 -92 28 l-60 0 0 -105z m135 60 c56 -55 16 -145 -65
-145 l-40 0 0 85 0 85 40 0 c30 0 47 -7 65 -25z"/>
<path d="M6270 1435 c0 -87 20 -133 59 -141 17 -4 33 -6 36 -6 41 0 67 15 80
47 21 48 20 165 0 165 -12 0 -15 -15 -15 -78 0 -90 -14 -112 -68 -112 -50 0
-62 21 -62 111 0 64 -3 79 -15 79 -12 0 -15 -14 -15 -65z"/>
<path d="M6620 1395 c0 -85 3 -105 15 -105 11 0 15 18 17 82 l3 83 64 -83 c35
-45 70 -82 77 -82 11 0 14 23 14 105 0 85 -3 105 -15 105 -11 0 -15 -18 -17
-82 l-3 -83 -64 83 c-35 45 -70 82 -77 82 -11 0 -14 -23 -14 -105z"/>
<path d="M7070 1395 c0 -87 3 -105 15 -105 10 0 15 11 15 35 0 34 1 35 40 35
74 0 117 73 70 120 -16 16 -33 20 -80 20 l-60 0 0 -105z m124 69 c36 -36 5
-84 -56 -84 l-38 0 0 50 0 50 39 0 c23 0 46 -7 55 -16z"/>
</g>
</svg>
