<?xml version="1.0" standalone="no"?>
<!DOCTYPE svg PUBLIC "-//W3C//DTD SVG 20010904//EN"
 "http://www.w3.org/TR/2001/REC-SVG-20010904/DTD/svg10.dtd">
<svg version="1.0" xmlns="http://www.w3.org/2000/svg"
 width="293pt" height="293pt" viewBox="0 0 1181.000000 1181.000000"
 preserveAspectRatio="xMidYMid meet">
<metadata>
Created by potrace 1.16, written by Peter Selinger 2001-2019
</metadata>
<g transform="translate(0.000000,1181.000000) scale(0.100000,-0.100000)"
fill="#000000" stroke="none">
<path d="M6325 7767 c-105 -28 -172 -76 -231 -165 -50 -74 -124 -212 -124
-229 0 -7 -4 -13 -9 -13 -5 0 -19 -16 -30 -36 -18 -30 -26 -35 -46 -30 -13 3
-27 1 -30 -4 -14 -23 -79 47 -182 201 -120 178 -209 242 -331 241 -87 0 -139
-14 -191 -53 -42 -30 -80 -94 -81 -134 0 -85 70 -172 189 -234 86 -45 230 -87
331 -98 l65 -7 -57 -17 c-72 -21 -218 -99 -347 -185 -88 -59 -99 -69 -90 -86
11 -21 7 -23 104 43 115 77 256 154 325 178 36 13 106 27 155 32 76 8 92 7
101 -6 15 -20 43 -19 51 1 5 14 19 15 97 9 126 -10 196 -34 381 -130 158 -83
301 -145 331 -145 10 0 14 7 12 22 -2 16 -17 26 -63 41 -33 11 -143 63 -245
115 -102 53 -212 103 -245 112 l-60 17 60 7 c87 10 277 62 351 96 84 38 148
91 173 144 25 50 28 144 7 184 -21 40 -86 99 -129 117 -52 22 -180 28 -242 12z
m220 -54 c48 -17 81 -46 106 -95 75 -147 -85 -282 -407 -344 -56 -10 -300 -44
-321 -44 -2 0 14 26 34 58 54 81 59 90 94 157 75 143 138 216 216 252 95 44
184 49 278 16z m-1103 -47 c60 -29 122 -98 246 -275 36 -50 116 -141 124 -141
5 0 7 -4 4 -8 -13 -21 -334 26 -431 63 -134 50 -220 107 -251 166 -45 87 15
185 131 213 40 10 141 -1 177 -18z"/>
<path d="M2682 6729 c-141 -27 -330 -205 -431 -406 -70 -139 -91 -263 -62
-370 47 -175 282 -289 463 -225 107 38 242 170 193 188 -12 5 -33 -9 -73 -48
-71 -68 -98 -84 -167 -103 -127 -33 -285 36 -347 152 -52 96 -43 218 26 368
81 176 253 350 389 395 72 23 168 -10 152 -53 -4 -8 -31 -32 -61 -52 -135 -89
-235 -243 -196 -301 27 -41 94 -37 163 10 72 49 152 177 167 269 l7 42 78 14
c65 12 77 18 77 34 0 19 -5 20 -79 14 l-80 -6 -42 34 c-53 45 -105 58 -177 44z
m158 -199 c0 -54 -88 -176 -155 -216 -61 -35 -79 -33 -72 12 8 46 67 124 137
180 60 48 90 56 90 24z"/>
<path d="M7850 6673 c-12 -32 -44 -119 -70 -193 -129 -367 -212 -547 -293
-637 -28 -31 -106 -66 -130 -58 -7 2 -24 6 -39 9 -64 14 -53 80 21 129 38 25
51 49 33 61 -14 9 -71 -23 -106 -60 -29 -30 -36 -46 -36 -77 0 -79 45 -112
145 -105 110 7 168 63 263 252 55 112 104 231 167 411 24 65 48 121 54 123 7
2 11 -13 11 -42 0 -25 9 -116 21 -203 11 -87 30 -241 43 -343 20 -167 24 -185
41 -188 16 -2 25 10 44 60 36 95 116 289 173 418 155 350 223 440 333 440 39
0 65 -28 65 -71 0 -42 -28 -59 -98 -59 -100 0 -96 -41 5 -48 49 -3 64 0 93 20
47 32 60 82 36 136 -54 121 -211 85 -314 -72 -50 -76 -134 -251 -233 -484 -40
-95 -78 -171 -83 -169 -20 7 -80 510 -89 742 -1 47 -6 61 -19 63 -12 2 -22
-13 -38 -55z"/>
<path d="M1004 6661 c-50 -13 -110 -51 -127 -81 -39 -66 -10 -134 79 -186 25
-15 43 -31 42 -36 -2 -5 -42 -26 -89 -47 -175 -77 -330 -206 -388 -322 -66
-132 -26 -280 91 -340 50 -26 156 -25 239 1 171 53 398 243 448 376 l18 46 6
-78 c17 -241 149 -334 355 -249 78 33 232 150 232 176 0 26 -32 24 -56 -2 -29
-32 -173 -124 -224 -142 -95 -35 -175 -15 -218 54 -39 65 -38 78 21 216 79
187 101 257 101 337 1 64 -1 70 -27 90 -26 19 -30 19 -55 6 -53 -31 -106 -147
-119 -262 -3 -32 -9 -58 -12 -58 -4 0 -15 13 -24 30 -53 88 -216 44 -345 -94
-68 -73 -98 -142 -89 -207 9 -65 53 -117 79 -91 7 7 3 20 -13 44 -49 68 -15
167 88 258 132 116 260 119 257 6 -2 -79 -90 -195 -229 -298 -99 -75 -156
-104 -242 -124 -123 -29 -204 0 -248 87 -34 67 -33 121 5 197 77 153 352 332
540 351 55 5 65 9 65 25 0 15 -12 23 -49 32 -70 18 -172 70 -196 101 -27 34
-25 55 6 92 32 38 88 54 174 49 81 -5 138 -31 169 -80 25 -39 45 -48 54 -24
14 36 -52 106 -123 131 -54 19 -153 27 -196 16z m489 -241 c10 -40 -42 -243
-90 -349 -24 -53 -26 -55 -36 -33 -23 50 30 303 79 378 20 29 40 31 47 4z"/>
<path d="M5853 6440 c-79 -48 -152 -247 -153 -417 0 -101 -4 -107 -46 -65 -30
30 -39 34 -71 29 -72 -12 -123 -86 -123 -180 0 -55 12 -76 54 -91 32 -11 101
31 146 89 24 30 46 55 50 55 4 0 21 -22 37 -48 39 -63 96 -92 180 -92 67 0
177 32 244 72 l41 24 32 -32 c17 -17 50 -37 71 -44 68 -21 212 -24 288 -6 136
32 347 149 347 194 0 30 -14 28 -77 -14 -80 -53 -230 -120 -297 -133 -123 -23
-261 -6 -301 39 -25 28 -13 50 29 50 43 0 113 26 144 53 46 42 19 117 -42 117
-60 0 -158 -73 -185 -136 -23 -57 -164 -122 -283 -131 -56 -5 -72 -2 -100 15
-39 24 -78 88 -78 127 0 16 28 82 61 148 145 284 159 455 32 377z m40 -48 c9
-14 -40 -147 -91 -247 -35 -69 -51 -92 -51 -75 -2 120 111 374 142 322z m-260
-480 l27 -28 -33 -39 c-45 -56 -68 -74 -96 -75 -23 0 -23 2 -19 57 4 48 10 61
37 85 39 35 51 35 84 0z"/>
<path d="M10590 6008 c-74 -71 -123 -109 -167 -130 -77 -36 -183 -55 -238 -41
-37 8 -40 12 -37 39 2 17 -2 43 -8 58 -9 24 -15 28 -40 24 -20 -3 -30 0 -30 9
0 7 -11 13 -26 13 -18 0 -40 -15 -73 -49 -55 -57 -180 -121 -288 -146 -103
-25 -301 -18 -340 12 -40 29 -41 57 -4 84 17 13 31 32 31 43 0 41 113 93 144
67 8 -7 18 -26 21 -42 9 -42 45 -41 45 2 0 43 -17 69 -56 85 -37 16 -68 12
-124 -17 -36 -17 -120 -100 -120 -118 0 -16 -182 -99 -257 -116 -52 -13 -101
-16 -185 -13 -137 5 -178 21 -178 69 0 58 107 159 168 159 22 0 48 -27 54 -55
2 -11 11 -21 21 -23 27 -5 23 60 -6 94 -49 57 -160 25 -244 -69 -51 -59 -160
-134 -227 -158 -113 -39 -229 -13 -241 54 -4 22 -1 48 10 72 17 42 14 65 -9
65 -19 0 -32 -25 -45 -82 -24 -106 33 -167 162 -176 63 -4 82 -1 142 23 39 16
89 41 113 57 24 17 44 28 46 26 1 -1 7 -16 14 -31 19 -43 86 -68 201 -74 142
-8 307 27 409 87 19 12 35 20 36 18 1 -2 7 -16 14 -31 8 -18 29 -36 60 -50 41
-19 65 -22 182 -22 149 0 227 17 344 76 59 30 75 29 76 -9 0 -19 61 -52 97
-52 21 0 44 10 65 28 29 25 38 27 78 21 134 -19 300 39 397 138 l43 45 60 -52
c33 -29 60 -58 60 -64 0 -20 -33 -45 -66 -52 -35 -7 -101 17 -110 41 -7 17
-39 20 -49 5 -9 -15 32 -68 67 -86 77 -40 221 -23 353 41 90 44 187 119 179
140 -10 24 -33 18 -77 -21 -47 -39 -185 -111 -233 -120 l-32 -6 5 45 c6 49 -1
59 -80 124 -34 29 -34 43 3 78 33 32 40 65 13 65 -10 -1 -65 -46 -123 -102z"/>
<path d="M2994 6011 c-89 -41 -160 -148 -151 -228 5 -51 17 -63 65 -63 28 0
43 10 88 57 l55 56 32 -33 c90 -93 222 -93 380 -1 86 51 88 35 11 -74 -83
-117 -134 -230 -135 -299 -2 -67 12 -88 55 -84 24 2 36 12 53 43 26 46 76 194
103 308 17 69 26 86 75 142 l56 64 42 -22 c32 -17 59 -22 117 -22 l75 0 1 -33
c1 -45 39 -82 92 -89 36 -5 45 -2 71 24 29 29 33 30 98 26 87 -6 171 9 252 47
35 17 65 29 67 27 2 -2 -1 -19 -6 -38 -15 -50 -13 -89 4 -89 8 0 34 21 58 46
51 55 123 104 154 104 14 0 30 -14 47 -39 44 -67 90 -95 164 -99 35 -3 84 1
109 8 79 22 234 133 234 167 0 30 -31 24 -76 -16 -101 -88 -206 -130 -287
-112 -41 10 -46 14 -140 120 -31 34 -90 25 -158 -24 l-52 -37 8 33 c19 85 -2
101 -62 48 -21 -18 -67 -46 -103 -62 -54 -26 -81 -31 -162 -35 l-98 -4 0 44
c0 50 -24 92 -47 83 -9 -3 -24 2 -33 10 -21 19 -56 8 -109 -33 -52 -39 -131
-42 -199 -8 -28 14 -56 26 -62 26 -5 0 -27 -16 -49 -35 l-39 -35 3 44 c2 29
-2 49 -10 56 -20 17 -35 3 -35 -30 0 -24 -10 -37 -47 -65 -125 -91 -253 -126
-332 -90 -40 17 -81 77 -95 138 -4 17 -13 27 -25 27 -9 0 -24 -12 -32 -27 -52
-103 -105 -176 -120 -167 -5 3 -9 20 -9 38 0 58 89 157 157 175 18 5 29 15 31
29 4 28 -26 29 -84 3z"/>
<path d="M4020 4796 l0 -96 61 0 c54 0 64 3 90 29 37 38 39 88 5 127 -20 24
-32 28 -90 32 l-66 4 0 -96z m113 63 c25 -11 47 -47 47 -75 0 -28 -50 -64 -91
-64 l-38 0 -6 54 c-9 73 -1 96 35 96 16 0 40 -5 53 -11z"/>
<path d="M5147 4879 c-29 -17 -49 -68 -43 -105 14 -72 116 -101 170 -48 59 60
14 164 -71 164 -21 0 -46 -5 -56 -11z m86 -21 c52 -27 61 -75 22 -113 -48 -49
-125 -19 -125 50 0 24 7 39 26 54 30 24 46 26 77 9z"/>
<path d="M5460 4796 l0 -96 56 0 c86 0 123 27 124 92 0 25 -8 46 -24 64 -20
24 -32 28 -90 32 l-66 4 0 -96z m113 63 c25 -11 47 -47 47 -75 0 -29 -50 -64
-91 -64 l-39 0 0 75 0 75 30 0 c16 0 40 -5 53 -11z"/>
<path d="M5809 4861 c-64 -64 -19 -161 76 -161 37 0 51 5 70 26 58 63 12 164
-75 164 -33 0 -48 -6 -71 -29z m99 3 c23 -7 52 -50 52 -79 0 -26 -46 -65 -78
-65 -67 0 -99 88 -46 129 29 23 36 24 72 15z"/>
<path d="M7187 4883 c-4 -3 -7 -46 -7 -95 0 -72 3 -88 15 -88 10 0 15 10 15
30 0 29 2 30 43 30 52 0 77 22 77 68 0 41 -31 62 -91 62 -25 0 -49 -3 -52 -7z"/>
<path d="M7511 4864 c-42 -35 -44 -98 -5 -138 54 -53 156 -24 170 48 17 93
-92 152 -165 90z m113 -15 c51 -40 19 -129 -46 -129 -56 0 -97 70 -65 111 32
41 73 48 111 18z"/>
<path d="M8159 4861 c-38 -39 -39 -87 -3 -130 22 -27 33 -31 73 -31 64 0 96
32 96 97 0 37 -5 49 -28 69 -41 35 -99 33 -138 -5z m105 -2 c34 -16 50 -63 33
-98 -39 -82 -172 -26 -137 59 18 43 60 59 104 39z"/>
</g>
</svg>
